<svg xmlns="http://www.w3.org/2000/svg" xmlns:xlink="http://www.w3.org/1999/xlink" width="500" zoomAndPan="magnify" viewBox="0 0 375 187.499995" height="250" preserveAspectRatio="xMidYMid meet" version="1.0"><defs><g/><clipPath id="d9c3d24133"><path d="M 23.253906 37.675781 L 91.324219 37.675781 L 91.324219 149.128906 L 23.253906 149.128906 Z M 23.253906 37.675781 " clip-rule="nonzero"/></clipPath></defs><g fill="#000000" fill-opacity="1"><g transform="translate(97.452376, 112.55323)"><g><path d="M 3.179688 0 L 20.128906 0 C 34.414062 0 42.394531 -7.34375 42.394531 -20.589844 C 42.394531 -33.835938 34.414062 -41.179688 20.128906 -41.179688 L 3.179688 -41.179688 Z M 12.78125 -7.921875 L 12.78125 -33.3125 L 20.128906 -33.3125 C 28.050781 -33.3125 32.503906 -28.800781 32.503906 -20.589844 C 32.503906 -12.433594 28.050781 -7.921875 20.128906 -7.921875 Z M 12.78125 -7.921875 "/></g></g></g><g fill="#000000" fill-opacity="1"><g transform="translate(146.26525, 112.55323)"><g><path d="M 21.285156 1.445312 C 32.734375 1.445312 39.792969 -5.207031 39.792969 -15.847656 L 39.792969 -41.179688 L 29.902344 -41.179688 L 29.902344 -16.136719 C 29.902344 -10.640625 26.605469 -7.054688 21.285156 -7.054688 C 15.90625 -7.054688 12.667969 -10.875 12.667969 -16.136719 L 12.667969 -41.179688 L 2.777344 -41.179688 L 2.777344 -15.847656 C 2.777344 -5.207031 9.773438 1.445312 21.285156 1.445312 Z M 21.285156 1.445312 "/></g></g></g><g fill="#000000" fill-opacity="1"><g transform="translate(193.516583, 112.55323)"><g><path d="M 3.179688 0 L 12.492188 0 L 12.492188 -29.265625 L 12.609375 -29.265625 L 29.382812 0 L 41.007812 0 L 41.007812 -41.179688 L 31.636719 -41.179688 L 31.636719 -11.855469 L 31.519531 -11.855469 L 14.75 -41.179688 L 3.179688 -41.179688 Z M 3.179688 0 "/></g></g></g><g fill="#000000" fill-opacity="1"><g transform="translate(242.387286, 112.55323)"><g><path d="M 3.179688 0 L 32.734375 0 L 32.734375 -7.921875 L 12.722656 -7.921875 L 12.722656 -17.582031 L 29.84375 -17.582031 L 29.84375 -24.582031 L 12.722656 -24.582031 L 12.722656 -33.3125 L 32.15625 -33.3125 L 32.15625 -41.179688 L 3.179688 -41.179688 Z M 3.179688 0 "/></g></g></g><g fill="#000000" fill-opacity="1"><g transform="translate(281.079061, 112.55323)"><g><path d="M 20.011719 1.445312 C 30.59375 1.445312 38 -3.757812 38 -12.378906 C 38 -19.085938 33.71875 -22.902344 24.347656 -24.464844 L 18.507812 -25.5625 C 14.226562 -26.375 12.378906 -27.761719 12.378906 -30.25 C 12.378906 -33.199219 14.921875 -35.339844 18.96875 -35.339844 C 22.960938 -35.339844 26.027344 -32.792969 26.546875 -28.800781 L 35.394531 -30.769531 C 34.355469 -37.941406 27.703125 -42.625 19.085938 -42.625 C 9.542969 -42.625 2.660156 -37.421875 2.660156 -29.324219 C 2.660156 -22.84375 6.710938 -19.203125 15.789062 -17.464844 L 21.515625 -16.367188 C 26.375 -15.382812 28.398438 -13.878906 28.398438 -11.335938 C 28.398438 -8.15625 25.332031 -5.898438 20.417969 -5.898438 C 14.921875 -5.898438 10.875 -9.136719 10.292969 -14.054688 L 1.273438 -12.378906 C 2.199219 -3.46875 9.773438 1.445312 20.011719 1.445312 Z M 20.011719 1.445312 "/></g></g></g><g fill="#000000" fill-opacity="1"><g transform="translate(324.628963, 112.55323)"><g><path d="M 13.1875 0 L 23.078125 0 L 23.078125 -32.734375 L 35.394531 -32.734375 L 35.394531 -41.179688 L 0.867188 -41.179688 L 0.867188 -32.734375 L 13.1875 -32.734375 Z M 13.1875 0 "/></g></g></g><g clip-path="url(#d9c3d24133)"><path fill="#000000" d="M 23.253906 66.222656 L 72.875 37.726562 L 72.875 43.933594 L 28.269531 69.550781 L 28.269531 133.96875 L 23.253906 136.847656 Z M 41.703125 78.457031 L 91.320312 49.960938 L 91.320312 68.519531 L 57.859375 87.738281 L 57.859375 95.210938 L 91.320312 75.992188 L 91.320312 94.550781 L 57.859375 113.769531 L 57.859375 121.242188 L 91.320312 102.027344 L 91.320312 120.585938 L 41.703125 149.082031 Z M 41.703125 78.457031 " fill-opacity="1" fill-rule="evenodd"/></g></svg>